<?xml version="1.0"?>
<svg xmlns="http://www.w3.org/2000/svg" xmlns:xlink="http://www.w3.org/1999/xlink" data-noselect="" viewBox="0 0 800 600" width="1600" height="1200" preserveAspectRatio="none" version="1.1"><defs/> <g id="background" data-noselect=""><rect fill="#f8f3e8" width="800" height="600" data-noselect=""/> <!----></g> <g id="shape_Gzz3LenE9y" transform="translate(320.43077406082926,176.148643602015) rotate(0,83.10906438908,83.10906438908) scale(1,1)" filter="" style="cursor: move; opacity: 1;"><g><svg xmlns="http://www.w3.org/2000/svg" xmlns:xlink="http://www.w3.org/1999/xlink" version="1.1" id="&#x56FE;&#x5C42;_1" x="0px" y="0px" style="enable-background:new 0 0 283.46 283.46;" xml:space="preserve" viewBox="12.369000434875488 4.8560028076171875 257.166015625 268.606689453125" width="159.13845626686143" height="166.21812877816" class="style-removed" preserveAspectRatio="none" data-parent="shape_Gzz3LenE9y">
<g>
	<g>
		<path d="M234.701,221.438c0.242-0.255,0.499-0.542,0.764-0.844c-0.724,0.784-1.466,1.551-2.209,2.317    C233.738,222.43,234.221,221.945,234.701,221.438z" fill="none" stroke-width="0"/>
		<path d="M255.844,191.16c-5.418,10.763-12.288,20.665-20.379,29.434c-0.265,0.302-0.522,0.588-0.764,0.844    c-0.48,0.507-0.963,0.992-1.446,1.474c-21.358,22.029-50.518,36.422-83.034,38.741c22.032,12.496,47.198,15.048,69.314,7.786    c33.5-11,52.5-45.665,36.5-78.583C256.035,190.855,255.967,190.965,255.844,191.16z" fill="#5047A5" stroke-width="0"/>
		<path d="M255.844,191.16c-1.673,2.656-14.089,22.266-20.379,29.434    C243.555,211.825,250.425,201.923,255.844,191.16z" opacity="0.22" fill="#000000" stroke-width="0"/>
		<path d="M233.255,222.912c-37.887,37.776-85.22-1.474-85.22-1.474    c-30.948-23.959-19.815-66.804-19.778-66.948c-14.265,24.465-26.737,56.044-8.722,79.948    c8.835,11.723,19.346,20.783,30.686,27.214C182.737,259.333,211.897,244.941,233.255,222.912z" fill="#5047A5" stroke-width="0"/>
		<path d="M119.535,234.438c-18.015-23.904-5.543-55.484,8.722-79.948l0.002-0.007l-0.002,0.007    c6.323-10.844,12.998-20.295,17.528-27.052c14.75-22,33.75-58,19.25-94c-8.051-19.989-19.027-26.585-27.201-28.504    C68.265,6.594,12.369,63.469,12.369,133.438c0,71.015,57.569,128.583,128.583,128.583c3.12,0,6.204-0.15,9.269-0.369    C138.881,255.221,128.37,246.161,119.535,234.438z" fill="#2A2566" stroke-width="0"/>
		<path d="M165.035,33.438c14.5,36-4.5,72-19.25,94c-4.53,6.757-11.205,16.208-17.528,27.052    c-0.038,0.144-11.17,42.989,19.778,66.948c0,0,47.332,39.25,85.22,1.474c0.743-0.766,1.485-1.533,2.209-2.317    c6.29-7.168,18.706-26.778,20.379-29.434c8.74-17.362,13.692-36.958,13.692-57.722c0-71.015-57.569-128.583-128.583-128.583    c-1.046,0-2.078,0.054-3.118,0.079C146.009,6.853,156.984,13.449,165.035,33.438z" fill="#7C8BE5" stroke-width="0"/>
	</g>
	<g>
		<path d="M234.701,221.438c0.242-0.255,0.499-0.542,0.764-0.844c-0.724,0.784-1.466,1.551-2.209,2.317    C233.738,222.43,234.221,221.945,234.701,221.438z" fill="none" stroke-width="0"/>
		<linearGradient id="SVGID_1_" gradientUnits="userSpaceOnUse" x1="247.3692" y1="268.2606" x2="214.3692" y2="236.9272">
			<stop offset="0.0349" stop-color="#FFFFFF" stop-opacity="0.6"/>
			<stop offset="0.0423" stop-color="#FFFFFF" stop-opacity="0.5652"/>
			<stop offset="1" stop-color="#FFFFFF" stop-opacity="0"/>
		</linearGradient>
		<path d="M255.844,191.16c-5.418,10.763-12.288,20.665-20.379,29.434    c-0.265,0.302-0.522,0.588-0.764,0.844c-0.48,0.507-0.963,0.992-1.446,1.474c-21.358,22.029-50.518,36.422-83.034,38.741    c22.032,12.496,47.198,15.048,69.314,7.786c33.5-11,52.5-45.665,36.5-78.583C256.035,190.855,255.967,190.965,255.844,191.16z" fill="url(#SVGID_1_)" stroke-width="0"/>
		<path d="M255.844,191.16c-1.673,2.656-14.089,22.266-20.379,29.434    C243.555,211.825,250.425,201.923,255.844,191.16z" opacity="0.22" fill="#000000" stroke-width="0"/>
		<linearGradient id="SVGID_2_" gradientUnits="userSpaceOnUse" x1="154.7973" y1="258.3506" x2="165.4639" y2="227.6839">
			<stop offset="0.0349" stop-color="#FFFFFF" stop-opacity="0.6"/>
			<stop offset="0.0423" stop-color="#FFFFFF" stop-opacity="0.5652"/>
			<stop offset="1" stop-color="#FFFFFF" stop-opacity="0"/>
		</linearGradient>
		<path d="M233.255,222.912c-37.887,37.776-85.22-1.474-85.22-1.474    c-30.948-23.959-19.815-66.804-19.778-66.948c-14.265,24.465-26.737,56.044-8.722,79.948    c8.835,11.723,19.346,20.783,30.686,27.214C182.737,259.333,211.897,244.941,233.255,222.912z" fill="url(#SVGID_2_)" stroke-width="0"/>
		<linearGradient id="SVGID_3_" gradientUnits="userSpaceOnUse" x1="60.1787" y1="236.2176" x2="147.6787" y2="23.2176">
			<stop offset="0.0349" stop-color="#FFFFFF" stop-opacity="0.6"/>
			<stop offset="0.0423" stop-color="#FFFFFF" stop-opacity="0.5652"/>
			<stop offset="1" stop-color="#FFFFFF" stop-opacity="0"/>
		</linearGradient>
		<path d="M119.535,234.438c-18.015-23.904-5.543-55.484,8.722-79.948l0.002-0.007l-0.002,0.007    c6.323-10.844,12.998-20.295,17.528-27.052c14.75-22,33.75-58,19.25-94c-8.051-19.989-19.027-26.585-27.201-28.504    C68.265,6.594,12.369,63.469,12.369,133.438c0,71.015,57.569,128.583,128.583,128.583c3.12,0,6.204-0.15,9.269-0.369    C138.881,255.221,128.37,246.161,119.535,234.438z" fill="url(#SVGID_3_)" stroke-width="0"/>
		<linearGradient id="SVGID_4_" gradientUnits="userSpaceOnUse" x1="221.8513" y1="37.6994" x2="147.8513" y2="217.6994">
			<stop offset="0.0349" stop-color="#FFFFFF" stop-opacity="0.6"/>
			<stop offset="0.0423" stop-color="#FFFFFF" stop-opacity="0.5652"/>
			<stop offset="1" stop-color="#FFFFFF" stop-opacity="0"/>
		</linearGradient>
		<path d="M165.035,33.438c14.5,36-4.5,72-19.25,94c-4.53,6.757-11.205,16.208-17.528,27.052    c-0.038,0.144-11.17,42.989,19.778,66.948c0,0,47.332,39.25,85.22,1.474c0.743-0.766,1.485-1.533,2.209-2.317    c6.29-7.168,18.706-26.778,20.379-29.434c8.74-17.362,13.692-36.958,13.692-57.722c0-71.015-57.569-128.583-128.583-128.583    c-1.046,0-2.078,0.054-3.118,0.079C146.009,6.853,156.984,13.449,165.035,33.438z" fill="url(#SVGID_4_)" stroke-width="0"/>
	</g>
</g>
</svg></g></g><g id="shape_JUjLDkeAtk" transform="translate(257.5,207.851356397985) rotate(0,183,193.74609375) scale(1,1)" filter="" style="cursor: move; opacity: 1;"><g><svg xmlns="http://www.w3.org/2000/svg" xmlns:xlink="http://www.w3.org/1999/xlink" version="1.1" width="393" height="378" viewBox="0 0 393 378" data-parent="shape_JUjLDkeAtk"><g data-width="177" transform="translate(54, 0)"><path d="M2.64-38.18L9.54-38.18L9.54-43.08Q9.54-44.30 10.76-44.30L10.76-44.30L16.45-44.30Q17.67-44.30 17.67-43.08L17.67-43.08L17.67-38.18L23.57-38.18Q24.79-38.18 24.79-36.97L24.79-36.97L24.79-36.39Q24.79-35.12 23.57-35.12L23.57-35.12L17.67-35.12L17.67-22.94L25.63-22.94Q26.84-22.94 26.84-21.73L26.84-21.73L26.84-21.15Q26.84-19.88 25.63-19.88L25.63-19.88L19.72-19.88L19.72-9.76L25.63-9.76Q26.84-9.76 26.84-8.54L26.84-8.54L26.84-7.91Q26.84-6.70 25.63-6.70L25.63-6.70L19.72-6.70L19.72 4.48L52.05 4.48Q53.26 4.48 53.26 5.70L53.26 5.70L53.26 6.33Q53.26 7.54 52.05 7.54L52.05 7.54L15.66 7.54Q9.39 7.54 6.49 3.01L6.49 3.01Q5.01 6.33 3.11 8.02L3.11 8.02Q2.48 8.60 1.74 8.23L1.74 8.23L1.21 7.96Q0.42 7.54 0.58 6.64L0.58 6.64Q2.32-4.11 2.43-14.61L2.43-14.61Q2.43-15.82 3.64-15.82L3.64-15.82L8.33-15.82Q8.86-15.82 9.18-15.45L9.18-15.45Q9.54-15.08 9.54-14.61L9.54-14.61Q9.44-6.86 7.91-1.21L7.91-1.21Q8.86 2.16 11.60 3.59L11.60 3.59L11.60-19.88L1.63-19.88Q0.42-19.88 0.42-21.15L0.42-21.15L0.42-21.73Q0.42-22.94 1.63-22.94L1.63-22.94L9.54-22.94L9.54-35.12L2.64-35.12Q1.42-35.12 1.42-36.39L1.42-36.39L1.42-36.97Q1.42-38.18 2.64-38.18L2.64-38.18ZM28.85-21.73L28.85-4.64Q28.85-3.11 29.64-1.58L29.64-1.58Q31.17 1.42 34.96 1.42L34.96 1.42L52.05 1.42Q53.26 1.42 53.26 0.21L53.26 0.21L53.26-0.37Q53.26-1.58 52.05-1.58L52.05-1.58L39.02-1.58Q37.02-1.58 37.02-3.64L37.02-3.64L37.02-18.67Q37.02-19.88 38.23-19.88L38.23-19.88L51.05-19.88Q52.26-19.88 52.26-21.15L52.26-21.15L52.26-41.03Q52.26-42.24 51.05-42.24L51.05-42.24L30.11-42.24Q28.85-42.24 28.85-41.03L28.85-41.03L28.85-40.45Q28.85-39.23 30.11-39.23L30.11-39.23L42.87-39.23Q44.09-39.23 44.09-37.97L44.09-37.97L44.09-24.15Q44.09-22.94 42.87-22.94L42.87-22.94L30.11-22.94Q28.85-22.94 28.85-21.73L28.85-21.73Z" transform="translate(0 209) skewX(0)" fill="rgb(0, 0, 0)" stroke="rgb(0, 0, 0)" stroke-width="0.09" data-glyph-w="59" data-glyph-h="52.734375" data-glyph-ascender="46.40625" data-glyph-descender="-6.328125"/><path d="M2.27-22.15L2.27-41.03Q2.27-42.24 3.48-42.24L3.48-42.24L19.51-42.24Q20.72-42.24 20.72-41.03L20.72-41.03L20.72-22.15Q20.72-20.94 19.51-20.94L19.51-20.94L17.03-20.94L17.03-9.76L19.51-9.76Q20.72-9.76 20.72-8.54L20.72-8.54L20.72-7.91Q20.72-6.70 19.51-6.70L19.51-6.70L17.03-6.70L17.03 4.48L19.51 4.48Q20.72 4.48 20.72 5.70L20.72 5.70L20.72 6.33Q20.72 7.54 19.51 7.54L19.51 7.54L1.63 7.54Q0.42 7.54 0.42 6.33L0.42 6.33L0.42 5.70Q0.42 4.48 1.63 4.48L1.63 4.48L2.27 4.48L2.27-16.66Q2.27-17.88 3.48-17.88L3.48-17.88L6.59-17.88Q7.80-17.88 7.80-16.66L7.80-16.66L7.80 4.48L9.65 4.48L9.65-20.94L3.48-20.94Q2.27-20.94 2.27-22.15L2.27-22.15ZM23.20-30.38L23.20 1.42Q23.20 2.95 23.99 4.48L23.99 4.48Q25.52 7.54 29.32 7.54L29.32 7.54L52.05 7.54Q53.26 7.54 53.26 6.33L53.26 6.33L53.26 5.70Q53.26 4.48 52.05 4.48L52.05 4.48L33.38 4.48Q31.32 4.48 31.32 2.48L31.32 2.48L31.32-7.70L40.87-7.70Q42.08-7.70 42.08-8.91L42.08-8.91L42.08-31.90Q42.08-33.12 40.87-33.12L40.87-33.12L27.79-33.12Q29.74-34.86 30.96-37.18L30.96-37.18L42.87-37.18Q44.09-37.18 44.09-35.96L44.09-35.96L44.09-11.76Q44.09-6.80 41.66-4.17L41.66-4.17Q41.08-3.59 41.45-2.79L41.45-2.79L41.71-2.32Q42.08-1.58 42.93-1.69L42.93-1.69Q46.20-2.00 48.52-3.69L48.52-3.69Q52.26-6.38 52.26-11.76L52.26-11.76L52.26-39.02Q52.26-40.24 51.05-40.24L51.05-40.24L32.17-40.24Q32.59-41.50 32.75-42.87L32.75-42.87Q32.85-43.45 32.48-43.88L32.48-43.88Q32.12-44.30 31.59-44.30L31.59-44.30L26.26-44.30Q25.26-44.30 25.10-43.29L25.10-43.29Q24.10-37.49 21.46-32.64L21.46-32.64Q21.20-32.06 21.46-31.54L21.46-31.54L21.67-31.06Q22.57-30.16 23.20-30.38L23.20-30.38ZM32.75-10.76L31.32-10.76L31.32-28.85Q31.32-30.06 32.54-30.06L32.54-30.06L32.75-30.06Q33.96-30.06 33.96-28.85L33.96-28.85L33.96-11.97Q33.96-10.76 32.75-10.76L32.75-10.76ZM13.34-25.21L13.34-37.97Q13.34-39.23 12.13-39.23L12.13-39.23L10.86-39.23Q9.65-39.23 9.65-37.97L9.65-37.97L9.65-25.21Q9.65-23.94 10.86-23.94L10.86-23.94L12.13-23.94Q13.34-23.94 13.34-25.21L13.34-25.21Z" transform="translate(59 209) skewX(0)" fill="rgb(0, 0, 0)" stroke="rgb(0, 0, 0)" stroke-width="0.09" data-glyph-w="59" data-glyph-h="52.734375" data-glyph-ascender="46.40625" data-glyph-descender="-6.328125"/><path d="M10.60-22.94L1.63-22.94Q0.42-22.94 0.42-24.15L0.42-24.15L0.42-25.68Q0.42-26.00 0.58-26.26L0.58-26.26L10.23-43.66Q10.55-44.30 11.29-44.30L11.29-44.30L17.67-44.30Q18.35-44.30 18.72-43.72L18.72-43.72Q19.04-43.08 18.72-42.50L18.72-42.50L10.55-27.79Q10.23-27.21 10.60-26.58L10.60-26.58Q10.92-26.00 11.60-26.00L11.60-26.00L18.51-26.00Q19.72-26.00 19.72-24.79L19.72-24.79L19.72-23.26Q19.72-22.94 19.56-22.68L19.56-22.68L10.55-6.49Q10.23-5.85 10.60-5.27L10.60-5.27Q10.92-4.64 11.60-4.64L11.60-4.64L18.51-4.64Q19.72-4.64 19.72-3.43L19.72-3.43L19.72-2.85Q19.72-1.58 18.51-1.58L18.51-1.58L1.63-1.58Q0.42-1.58 0.42-2.85L0.42-2.85L0.42-4.32Q0.42-4.64 0.58-4.96L0.58-4.96L10.60-22.94ZM52.52-16.14Q49.46-9.54 44.51-4.32L44.51-4.32Q48.41 2.16 52.58 5.91L52.58 5.91Q53.26 6.54 52.84 7.38L52.84 7.38L52.73 7.59Q52.21 8.60 51.21 8.23L51.21 8.23Q45.25 5.91 39.87-0.11L39.87-0.11Q31.90 6.06 22.73 8.33L22.73 8.33Q21.78 8.60 21.30 7.70L21.30 7.70L21.25 7.54Q20.72 6.54 21.73 5.96L21.73 5.96Q29.21 1.48 35.81-5.43L35.81-5.43Q31.48-12.08 28.79-20.94L28.79-20.94L21.94-20.94Q20.72-20.94 20.72-22.15L20.72-22.15L20.72-22.73Q20.72-23.94 21.94-23.94L21.94-23.94L27.95-23.94Q26.89-27.90 26.21-32.12L26.21-32.12L21.94-32.12Q20.72-32.12 20.72-33.33L20.72-33.33L20.72-33.91Q20.72-35.12 21.94-35.12L21.94-35.12L25.73-35.12Q25.21-38.97 24.89-42.98L24.89-42.98Q24.84-43.51 25.21-43.93L25.21-43.93Q25.58-44.30 26.10-44.30L26.10-44.30L31.80-44.30Q32.91-44.30 33.01-43.19L33.01-43.19Q33.38-39.08 34.01-35.12L34.01-35.12L52.05-35.12Q53.26-35.12 53.26-33.91L53.26-33.91L53.26-33.33Q53.26-32.12 52.05-32.12L52.05-32.12L34.54-32.12Q35.33-27.90 36.39-23.94L36.39-23.94L52.05-23.94Q53.26-23.94 53.26-22.73L53.26-22.73L53.26-22.15Q53.26-20.94 52.05-20.94L52.05-20.94L37.28-20.94Q38.81-15.87 40.87-11.34L40.87-11.34Q43.03-14.24 44.77-17.24L44.77-17.24Q45.14-17.88 45.83-17.88L45.83-17.88L51.42-17.88Q52.05-17.88 52.42-17.30L52.42-17.30Q52.79-16.77 52.52-16.14L52.52-16.14ZM41.13-37.92L39.50-41.55Q39.23-42.19 39.60-42.71L39.60-42.71Q39.97-43.29 40.61-43.29L40.61-43.29L46.72-43.29Q47.57-43.29 47.88-42.56L47.88-42.56L49.46-38.87Q49.73-38.29 49.36-37.76L49.36-37.76Q48.99-37.18 48.36-37.18L48.36-37.18L42.24-37.18Q41.45-37.18 41.13-37.92L41.13-37.92ZM1.63 4.48L18.51 4.48Q19.72 4.48 19.72 5.70L19.72 5.70L19.72 6.33Q19.72 7.54 18.51 7.54L18.51 7.54L1.63 7.54Q0.42 7.54 0.42 6.33L0.42 6.33L0.42 5.70Q0.42 4.48 1.63 4.48L1.63 4.48Z" transform="translate(118 209) skewX(0)" fill="rgb(0, 0, 0)" stroke="rgb(0, 0, 0)" stroke-width="0.09" data-glyph-w="59" data-glyph-h="52.734375" data-glyph-ascender="46.40625" data-glyph-descender="-6.328125"/></g></svg></g></g>  <!----></svg>
