<?xml version="1.0"?>
<svg xmlns="http://www.w3.org/2000/svg" xmlns:xlink="http://www.w3.org/1999/xlink" data-noselect="" viewBox="0 0 200 90" width="400" height="180" preserveAspectRatio="none" version="1.1"><defs/> <g id="background" data-noselect=""><rect fill="rgb(38, 59, 131)" width="200" height="90" data-noselect=""/> <!----></g> <g id="shape_GFEU4wEUfK" transform="translate(17.899821502674136,12.474159729480458) rotate(0,28.85136355067359,32.10998158881733) scale(1,1)" filter="" style="cursor: move; opacity: 1;"><g><svg xmlns="http://www.w3.org/2000/svg" xmlns:xlink="http://www.w3.org/1999/xlink" version="1.1" id="&#x56FE;&#x5C42;_1" x="0px" y="0px" width="57.70272710134718" height="64.21996317763465" viewBox="33.49998474121094 26.199996948242188 132.80081176757812 147.8000030517578" style="enable-background:new 0 0 200 200;" xml:space="preserve" class="style-removed" preserveAspectRatio="none" data-parent="shape_GFEU4wEUfK">

<g>
	<path d="M141.2,55.4c-0.8-0.7-2-0.5-2.7,0.3c-0.7,0.8-0.5,2,0.3,2.7c15.1,12,23.7,29.8,23.7,49.1   c0,7.6-1.4,14.9-3.9,21.7c0.5-5.7-0.7-10.9-3.8-16.1c-4.6-8-11.4-12.4-19.3-15c-3.4-1.1-6.9-1.9-10.6-2.4c0.9,0.4,1.8,0.7,2.6,1.2   c4.5,2.9,9.4,5.3,13.4,8.9c7.3,6.6,8.8,15.3,5,24.4c-3.5,8.5-9.9,14.4-17.3,19.5c-12.3,8.4-25.9,14.4-39.8,19.5   c-29.2-5.2-51.5-30.9-51.5-61.6c0-31.9,23.9-58.6,55.5-62.2c1.1-0.1,1.8-1.1,1.7-2.1c-0.1-1.1-1.1-1.8-2.1-1.7   c-33.6,3.8-58.9,32.1-58.9,66c0,36.6,29.8,66.4,66.4,66.4c36.6,0,66.4-29.8,66.4-66.4C166.4,87.1,157.2,68.1,141.2,55.4z" fill="#0B81C6" stroke-width="0"/>
	<path d="M105.1,45.1c8.5,0.7,16.7,3.1,24.2,7.1c0.3,0.2,0.6,0.2,0.9,0.2c0.7,0,1.4-0.4,1.7-1c0.5-0.9,0.1-2.1-0.8-2.6   c-8-4.2-16.7-6.8-25.7-7.5c-1.1-0.1-2,0.7-2.1,1.8C103.2,44.1,104,45,105.1,45.1z" fill="#0B81C6" stroke-width="0"/>
	<path d="M97.8,33c1.1,2.6,1.6,5.4,1.2,8.1c-0.3,2.7-1.3,5.3-2.9,7.5c-1.5,2.2-3.6,4-5.8,5.2c-0.6,0.3-1.2,0.6-1.7,0.9   l-2,0.9c-0.7,0.3-1.5,0.7-2.2,1.1c-0.7,0.4-1.4,0.8-2.1,1.3c-2.8,1.9-5.3,4.4-7,7.4c-1.8,3-2.8,6.5-3.2,9.9   c-0.2,1.7-0.2,3.5-0.1,5.2c0,0.9,0.1,1.7,0.3,2.6c0.1,0.4,0.1,0.9,0.2,1.3l0.1,0.6c-2.2,1.5-4.1,3.3-5.7,5.4   c-1.9,2.5-4,4.9-5.6,7.5c-2.4,3.8-5.6,6.4-9.7,8c-2,0.8-4,1.7-5.9,2.6c-3.1,1.5-3.5,2.6-2.6,5.8c1.1,3.8,2.8,5.3,5.8,5.1   c1.4-0.1,2.7-0.6,4.3-0.5c-1.6,0.7-3.2,1.4-4.8,2.1c1.9,3.8,3.1,4.3,6.8,2.8c4.2-1.8,8.5-2.4,13.1-2.3c5.3,0.1,10.5-0.5,15.8-0.9   c10-0.9,16.6,4.9,17,15c0.2,7.2-2.4,13.7-5.9,19.8c-0.6,1.1-1.3,2.1-2.1,3.5c0.7,0,1.1,0,1.4-0.1c11.6-4.8,22.9-10.1,33-17.7   c3-2.3,5.9-4.7,8.4-7.5c8.6-9.5,7.3-22.2-3.4-29.4c-4.3-2.9-9.4-4.7-14.1-7c-0.8-0.4-1.7-0.7-2.6-1.4c5.9-2,11.4-4.1,13.1-11.1   c-5.5-1.9-10.3-0.9-15.1,1.6c-0.1-0.3-0.1-0.5-0.2-0.6c-1.9-3.3-6.7-5.6-12.5-6.5c0.2-0.4,0.5-0.7,0.7-1.1c1.5-2,3.2-3.9,5.1-5.6   c1.9-1.7,4.1-3.1,6.5-4.3c1.2-0.6,2.4-1.2,3.6-1.6c0.6-0.3,1.3-0.5,1.9-0.7c0.6-0.2,1.4-0.4,2.1-0.7c2.9-0.9,5.7-2.2,8.3-3.9   c2.6-1.7,4.9-3.9,6.5-6.5c1.6-2.6,2.5-5.5,2.9-8.4c0.4-2.9,0.4-5.8,0.1-8.7c-0.2,2.9-0.6,5.7-1.4,8.4c-0.8,2.7-2,5.2-3.7,7.3   c-1.7,2.1-3.9,3.6-6.3,4.7c-2.4,1.1-5,1.8-7.7,2.3l-2.1,0.3c-0.8,0.1-1.5,0.3-2.2,0.4c-1.5,0.3-3,0.7-4.5,1.2c-2.9,1-5.8,2.3-8.5,4   c-2.7,1.7-5.2,3.7-7.5,6c-1.1,1.2-2.2,2.4-3.2,3.7c-0.5,0.7-1,1.3-1.4,2c-0.2,0.3-0.4,0.7-0.6,1c-2.6,0.3-5.3,0.9-7.8,1.7   c-0.1-0.4-0.2-0.9-0.3-1.3c-0.3-1.2-0.4-2.4-0.5-3.6c-0.1-2.4,0.2-4.8,1-7c0.8-2.2,2.2-4.2,4.1-6c0.5-0.4,1-0.8,1.5-1.3   c0.5-0.4,1-0.8,1.6-1.1l0.8-0.5l1-0.6c0.7-0.4,1.4-0.9,2-1.4c2.6-2,4.8-4.5,6.2-7.4c1.5-2.9,2.2-6,2.2-9.2c-0.1-3.1-1-6.2-2.6-8.8   c-1.6-2.6-3.8-4.7-6.2-6.3C94.8,28.1,96.7,30.4,97.8,33z M92,90c-3.4,4-8.3,5.4-11.6,3.5C81.3,89.2,84.8,88.5,92,90z" fill="#0B81C6" stroke-width="0"/>
</g>
</svg></g></g><g id="shape_JUjLDkeAtk" transform="translate(58.082316048964216,-54.86774068504558) rotate(0,77.40514723324019,102.39932812500003) scale(1,1)" filter="" style="cursor: move; opacity: 1;"><g><svg xmlns="http://www.w3.org/2000/svg" xmlns:xlink="http://www.w3.org/1999/xlink" version="1.1" width="213.47229446648038" height="204.79865625000005" viewBox="0 0 237.1914382960893 227.55406250000004"><g data-width="106.81042363181663" transform="translate(32.60050733213633, 0)"><path d="M1.59-23.04L5.76-23.04L5.76-26.00Q5.76-26.73 6.49-26.73L6.49-26.73L9.93-26.73Q10.66-26.73 10.66-26.00L10.66-26.00L10.66-23.04L14.23-23.04Q14.96-23.04 14.96-22.31L14.96-22.31L14.96-21.96Q14.96-21.20 14.23-21.20L14.23-21.20L10.66-21.20L10.66-13.84L15.47-13.84Q16.20-13.84 16.20-13.11L16.20-13.11L16.20-12.76Q16.20-12.00 15.47-12.00L15.47-12.00L11.90-12.00L11.90-5.89L15.47-5.89Q16.20-5.89 16.20-5.16L16.20-5.16L16.20-4.77Q16.20-4.04 15.47-4.04L15.47-4.04L11.90-4.04L11.90 2.71L31.41 2.71Q32.14 2.71 32.14 3.44L32.14 3.44L32.14 3.82Q32.14 4.55 31.41 4.55L31.41 4.55L9.45 4.55Q5.67 4.55 3.91 1.81L3.91 1.81Q3.02 3.82 1.88 4.84L1.88 4.84Q1.50 5.19 1.05 4.96L1.05 4.96L0.73 4.81Q0.25 4.55 0.35 4.01L0.35 4.01Q1.40-2.48 1.46-8.82L1.46-8.82Q1.46-9.55 2.20-9.55L2.20-9.55L5.03-9.55Q5.35-9.55 5.54-9.33L5.54-9.33Q5.76-9.10 5.76-8.82L5.76-8.82Q5.70-4.14 4.77-0.73L4.77-0.73Q5.35 1.30 7.00 2.16L7.00 2.16L7.00-12.00L0.99-12.00Q0.25-12.00 0.25-12.76L0.25-12.76L0.25-13.11Q0.25-13.84 0.99-13.84L0.99-13.84L5.76-13.84L5.76-21.20L1.59-21.20Q0.86-21.20 0.86-21.96L0.86-21.96L0.86-22.31Q0.86-23.04 1.59-23.04L1.59-23.04ZM17.41-13.11L17.41-2.80Q17.41-1.88 17.89-0.95L17.89-0.95Q18.81 0.86 21.10 0.86L21.10 0.86L31.41 0.86Q32.14 0.86 32.14 0.13L32.14 0.13L32.14-0.22Q32.14-0.95 31.41-0.95L31.41-0.95L23.55-0.95Q22.34-0.95 22.34-2.20L22.34-2.20L22.34-11.27Q22.34-12.00 23.07-12.00L23.07-12.00L30.81-12.00Q31.54-12.00 31.54-12.76L31.54-12.76L31.54-24.76Q31.54-25.49 30.81-25.49L30.81-25.49L18.17-25.49Q17.41-25.49 17.41-24.76L17.41-24.76L17.41-24.41Q17.41-23.68 18.17-23.68L18.17-23.68L25.87-23.68Q26.61-23.68 26.61-22.91L26.61-22.91L26.61-14.58Q26.61-13.84 25.87-13.84L25.87-13.84L18.17-13.84Q17.41-13.84 17.41-13.11L17.41-13.11Z" transform="translate(0 125.77703125000002) skewX(0)" fill="rgb(255, 255, 255)" stroke="rgb(255, 255, 255)" stroke-width="0.054" data-glyph-w="35.60347454393888" data-glyph-h="31.826171875000004" data-glyph-ascender="28.007031250000004" data-glyph-descender="-3.819140625"/><path d="M1.37-13.37L1.37-24.76Q1.37-25.49 2.10-25.49L2.10-25.49L11.78-25.49Q12.51-25.49 12.51-24.76L12.51-24.76L12.51-13.37Q12.51-12.63 11.78-12.63L11.78-12.63L10.28-12.63L10.28-5.89L11.78-5.89Q12.51-5.89 12.51-5.16L12.51-5.16L12.51-4.77Q12.51-4.04 11.78-4.04L11.78-4.04L10.28-4.04L10.28 2.71L11.78 2.71Q12.51 2.71 12.51 3.44L12.51 3.44L12.51 3.82Q12.51 4.55 11.78 4.55L11.78 4.55L0.99 4.55Q0.25 4.55 0.25 3.82L0.25 3.82L0.25 3.44Q0.25 2.71 0.99 2.71L0.99 2.71L1.37 2.71L1.37-10.06Q1.37-10.79 2.10-10.79L2.10-10.79L3.98-10.79Q4.71-10.79 4.71-10.06L4.71-10.06L4.71 2.71L5.82 2.71L5.82-12.63L2.10-12.63Q1.37-12.63 1.37-13.37L1.37-13.37ZM14.00-18.33L14.00 0.86Q14.00 1.78 14.48 2.71L14.48 2.71Q15.40 4.55 17.70 4.55L17.70 4.55L31.41 4.55Q32.14 4.55 32.14 3.82L32.14 3.82L32.14 3.44Q32.14 2.71 31.41 2.71L31.41 2.71L20.15 2.71Q18.90 2.71 18.90 1.50L18.90 1.50L18.90-4.65L24.67-4.65Q25.40-4.65 25.40-5.38L25.40-5.38L25.40-19.25Q25.40-19.99 24.67-19.99L24.67-19.99L16.77-19.99Q17.95-21.04 18.68-22.44L18.68-22.44L25.87-22.44Q26.61-22.44 26.61-21.71L26.61-21.71L26.61-7.10Q26.61-4.11 25.14-2.51L25.14-2.51Q24.79-2.16 25.02-1.69L25.02-1.69L25.17-1.40Q25.40-0.95 25.91-1.02L25.91-1.02Q27.88-1.21 29.28-2.23L29.28-2.23Q31.54-3.85 31.54-7.10L31.54-7.10L31.54-23.55Q31.54-24.28 30.81-24.28L30.81-24.28L19.41-24.28Q19.67-25.05 19.76-25.87L19.76-25.87Q19.83-26.22 19.60-26.48L19.60-26.48Q19.38-26.73 19.06-26.73L19.06-26.73L15.85-26.73Q15.24-26.73 15.15-26.13L15.15-26.13Q14.54-22.63 12.95-19.70L12.95-19.70Q12.79-19.35 12.95-19.03L12.95-19.03L13.08-18.75Q13.62-18.20 14.00-18.33L14.00-18.33ZM19.76-6.49L18.90-6.49L18.90-17.41Q18.90-18.14 19.64-18.14L19.64-18.14L19.76-18.14Q20.50-18.14 20.50-17.41L20.50-17.41L20.50-7.22Q20.50-6.49 19.76-6.49L19.76-6.49ZM8.05-15.21L8.05-22.91Q8.05-23.68 7.32-23.68L7.32-23.68L6.56-23.68Q5.82-23.68 5.82-22.91L5.82-22.91L5.82-15.21Q5.82-14.45 6.56-14.45L6.56-14.45L7.32-14.45Q8.05-14.45 8.05-15.21L8.05-15.21Z" transform="translate(35.60347454393888 125.77703125000002) skewX(0)" fill="rgb(255, 255, 255)" stroke="rgb(255, 255, 255)" stroke-width="0.054" data-glyph-w="35.60347454393888" data-glyph-h="31.826171875000004" data-glyph-ascender="28.007031250000004" data-glyph-descender="-3.819140625"/><path d="M6.40-13.84L0.99-13.84Q0.25-13.84 0.25-14.58L0.25-14.58L0.25-15.50Q0.25-15.69 0.35-15.85L0.35-15.85L6.17-26.35Q6.37-26.73 6.81-26.73L6.81-26.73L10.66-26.73Q11.08-26.73 11.30-26.38L11.30-26.38Q11.49-26.00 11.30-25.65L11.30-25.65L6.37-16.77Q6.17-16.42 6.40-16.04L6.40-16.04Q6.59-15.69 7.00-15.69L7.00-15.69L11.17-15.69Q11.90-15.69 11.90-14.96L11.90-14.96L11.90-14.04Q11.90-13.84 11.81-13.69L11.81-13.69L6.37-3.91Q6.17-3.53 6.40-3.18L6.40-3.18Q6.59-2.80 7.00-2.80L7.00-2.80L11.17-2.80Q11.90-2.80 11.90-2.07L11.90-2.07L11.90-1.72Q11.90-0.95 11.17-0.95L11.17-0.95L0.99-0.95Q0.25-0.95 0.25-1.72L0.25-1.72L0.25-2.61Q0.25-2.80 0.35-2.99L0.35-2.99L6.40-13.84ZM31.70-9.74Q29.85-5.76 26.86-2.61L26.86-2.61Q29.22 1.30 31.73 3.56L31.73 3.56Q32.14 3.95 31.89 4.46L31.89 4.46L31.83 4.58Q31.51 5.19 30.90 4.96L30.90 4.96Q27.31 3.56 24.06-0.06L24.06-0.06Q19.25 3.66 13.72 5.03L13.72 5.03Q13.14 5.19 12.86 4.65L12.86 4.65L12.83 4.55Q12.51 3.95 13.11 3.60L13.11 3.60Q17.63 0.89 21.61-3.28L21.61-3.28Q19.00-7.29 17.38-12.63L17.38-12.63L13.24-12.63Q12.51-12.63 12.51-13.37L12.51-13.37L12.51-13.72Q12.51-14.45 13.24-14.45L13.24-14.45L16.87-14.45Q16.23-16.84 15.82-19.38L15.82-19.38L13.24-19.38Q12.51-19.38 12.51-20.11L12.51-20.11L12.51-20.46Q12.51-21.20 13.24-21.20L13.24-21.20L15.53-21.20Q15.21-23.52 15.02-25.94L15.02-25.94Q14.99-26.26 15.21-26.51L15.21-26.51Q15.44-26.73 15.75-26.73L15.75-26.73L19.19-26.73Q19.86-26.73 19.92-26.07L19.92-26.07Q20.15-23.58 20.53-21.20L20.53-21.20L31.41-21.20Q32.14-21.20 32.14-20.46L32.14-20.46L32.14-20.11Q32.14-19.38 31.41-19.38L31.41-19.38L20.85-19.38Q21.32-16.84 21.96-14.45L21.96-14.45L31.41-14.45Q32.14-14.45 32.14-13.72L32.14-13.72L32.14-13.37Q32.14-12.63 31.41-12.63L31.41-12.63L22.50-12.63Q23.42-9.58 24.67-6.84L24.67-6.84Q25.97-8.59 27.02-10.41L27.02-10.41Q27.24-10.79 27.66-10.79L27.66-10.79L31.03-10.79Q31.41-10.79 31.64-10.44L31.64-10.44Q31.86-10.12 31.70-9.74L31.70-9.74ZM24.82-22.88L23.84-25.08Q23.68-25.46 23.90-25.78L23.90-25.78Q24.12-26.13 24.51-26.13L24.51-26.13L28.20-26.13Q28.71-26.13 28.90-25.68L28.90-25.68L29.85-23.46Q30.01-23.11 29.79-22.79L29.79-22.79Q29.57-22.44 29.18-22.44L29.18-22.44L25.49-22.44Q25.02-22.44 24.82-22.88L24.82-22.88ZM0.99 2.71L11.17 2.71Q11.90 2.71 11.90 3.44L11.90 3.44L11.90 3.82Q11.90 4.55 11.17 4.55L11.17 4.55L0.99 4.55Q0.25 4.55 0.25 3.82L0.25 3.82L0.25 3.44Q0.25 2.71 0.99 2.71L0.99 2.71Z" transform="translate(71.20694908787776 125.77703125000002) skewX(0)" fill="rgb(255, 255, 255)" stroke="rgb(255, 255, 255)" stroke-width="0.054" data-glyph-w="35.60347454393888" data-glyph-h="31.826171875000004" data-glyph-ascender="28.007031250000004" data-glyph-descender="-3.819140625"/></g></svg></g></g>  <!----></svg>
