<?xml version="1.0"?>
<svg xmlns="http://www.w3.org/2000/svg" xmlns:xlink="http://www.w3.org/1999/xlink" data-noselect="" viewBox="0 0 800 800" width="1600" height="1600" preserveAspectRatio="none" version="1.1"><defs/> <g id="background" data-noselect=""><rect fill="rgb(38, 59, 131)" width="800" height="800" data-noselect=""/> <!----></g> <g id="shape_GFEU4wEUfK" transform="translate(43.75606704301694,7.06789215786855) rotate(0,355.9242258288195,396.1240971611074) scale(1,1)" filter="" style="cursor: move; opacity: 1;"><g><svg xmlns="http://www.w3.org/2000/svg" xmlns:xlink="http://www.w3.org/1999/xlink" version="1.1" id="&#x56FE;&#x5C42;_1" x="0px" y="0px" width="711.848451657639" height="792.2481943222148" viewBox="33.49998474121094 26.199996948242188 132.80081176757812 147.8000030517578" style="enable-background:new 0 0 200 200;" xml:space="preserve" class="style-removed" preserveAspectRatio="none" data-parent="shape_GFEU4wEUfK">

<g>
	<path d="M141.2,55.4c-0.8-0.7-2-0.5-2.7,0.3c-0.7,0.8-0.5,2,0.3,2.7c15.1,12,23.7,29.8,23.7,49.1   c0,7.6-1.4,14.9-3.9,21.7c0.5-5.7-0.7-10.9-3.8-16.1c-4.6-8-11.4-12.4-19.3-15c-3.4-1.1-6.9-1.9-10.6-2.4c0.9,0.4,1.8,0.7,2.6,1.2   c4.5,2.9,9.4,5.3,13.4,8.9c7.3,6.6,8.8,15.3,5,24.4c-3.5,8.5-9.9,14.4-17.3,19.5c-12.3,8.4-25.9,14.4-39.8,19.5   c-29.2-5.2-51.5-30.9-51.5-61.6c0-31.9,23.9-58.6,55.5-62.2c1.1-0.1,1.8-1.1,1.7-2.1c-0.1-1.1-1.1-1.8-2.1-1.7   c-33.6,3.8-58.9,32.1-58.9,66c0,36.6,29.8,66.4,66.4,66.4c36.6,0,66.4-29.8,66.4-66.4C166.4,87.1,157.2,68.1,141.2,55.4z" fill="#0B81C6" stroke-width="0"/>
	<path d="M105.1,45.1c8.5,0.7,16.7,3.1,24.2,7.1c0.3,0.2,0.6,0.2,0.9,0.2c0.7,0,1.4-0.4,1.7-1c0.5-0.9,0.1-2.1-0.8-2.6   c-8-4.2-16.7-6.8-25.7-7.5c-1.1-0.1-2,0.7-2.1,1.8C103.2,44.1,104,45,105.1,45.1z" fill="#0B81C6" stroke-width="0"/>
	<path d="M97.8,33c1.1,2.6,1.6,5.4,1.2,8.1c-0.3,2.7-1.3,5.3-2.9,7.5c-1.5,2.2-3.6,4-5.8,5.2c-0.6,0.3-1.2,0.6-1.7,0.9   l-2,0.9c-0.7,0.3-1.5,0.7-2.2,1.1c-0.7,0.4-1.4,0.8-2.1,1.3c-2.8,1.9-5.3,4.4-7,7.4c-1.8,3-2.8,6.5-3.2,9.9   c-0.2,1.7-0.2,3.5-0.1,5.2c0,0.9,0.1,1.7,0.3,2.6c0.1,0.4,0.1,0.9,0.2,1.3l0.1,0.6c-2.2,1.5-4.1,3.3-5.7,5.4   c-1.9,2.5-4,4.9-5.6,7.5c-2.4,3.8-5.6,6.4-9.7,8c-2,0.8-4,1.7-5.9,2.6c-3.1,1.5-3.5,2.6-2.6,5.8c1.1,3.8,2.8,5.3,5.8,5.1   c1.4-0.1,2.7-0.6,4.3-0.5c-1.6,0.7-3.2,1.4-4.8,2.1c1.9,3.8,3.1,4.3,6.8,2.8c4.2-1.8,8.5-2.4,13.1-2.3c5.3,0.1,10.5-0.5,15.8-0.9   c10-0.9,16.6,4.9,17,15c0.2,7.2-2.4,13.7-5.9,19.8c-0.6,1.1-1.3,2.1-2.1,3.5c0.7,0,1.1,0,1.4-0.1c11.6-4.8,22.9-10.1,33-17.7   c3-2.3,5.9-4.7,8.4-7.5c8.6-9.5,7.3-22.2-3.4-29.4c-4.3-2.9-9.4-4.7-14.1-7c-0.8-0.4-1.7-0.7-2.6-1.4c5.9-2,11.4-4.1,13.1-11.1   c-5.5-1.9-10.3-0.9-15.1,1.6c-0.1-0.3-0.1-0.5-0.2-0.6c-1.9-3.3-6.7-5.6-12.5-6.5c0.2-0.4,0.5-0.7,0.7-1.1c1.5-2,3.2-3.9,5.1-5.6   c1.9-1.7,4.1-3.1,6.5-4.3c1.2-0.6,2.4-1.2,3.6-1.6c0.6-0.3,1.3-0.5,1.9-0.7c0.6-0.2,1.4-0.4,2.1-0.7c2.9-0.9,5.7-2.2,8.3-3.9   c2.6-1.7,4.9-3.9,6.5-6.5c1.6-2.6,2.5-5.5,2.9-8.4c0.4-2.9,0.4-5.8,0.1-8.7c-0.2,2.9-0.6,5.7-1.4,8.4c-0.8,2.7-2,5.2-3.7,7.3   c-1.7,2.1-3.9,3.6-6.3,4.7c-2.4,1.1-5,1.8-7.7,2.3l-2.1,0.3c-0.8,0.1-1.5,0.3-2.2,0.4c-1.5,0.3-3,0.7-4.5,1.2c-2.9,1-5.8,2.3-8.5,4   c-2.7,1.7-5.2,3.7-7.5,6c-1.1,1.2-2.2,2.4-3.2,3.7c-0.5,0.7-1,1.3-1.4,2c-0.2,0.3-0.4,0.7-0.6,1c-2.6,0.3-5.3,0.9-7.8,1.7   c-0.1-0.4-0.2-0.9-0.3-1.3c-0.3-1.2-0.4-2.4-0.5-3.6c-0.1-2.4,0.2-4.8,1-7c0.8-2.2,2.2-4.2,4.1-6c0.5-0.4,1-0.8,1.5-1.3   c0.5-0.4,1-0.8,1.6-1.1l0.8-0.5l1-0.6c0.7-0.4,1.4-0.9,2-1.4c2.6-2,4.8-4.5,6.2-7.4c1.5-2.9,2.2-6,2.2-9.2c-0.1-3.1-1-6.2-2.6-8.8   c-1.6-2.6-3.8-4.7-6.2-6.3C94.8,28.1,96.7,30.4,97.8,33z M92,90c-3.4,4-8.3,5.4-11.6,3.5C81.3,89.2,84.8,88.5,92,90z" fill="#0B81C6" stroke-width="0"/>
</g>
</svg></g></g>  <!----></svg>
