<?xml version="1.0"?>
<svg xmlns="http://www.w3.org/2000/svg" xmlns:xlink="http://www.w3.org/1999/xlink" data-noselect="" viewBox="0 0 800 600" width="1600" height="1200" preserveAspectRatio="none" version="1.1"><defs/> <g id="background" data-noselect=""><rect fill="rgb(38, 59, 131)" width="800" height="600" data-noselect=""/> <!----></g> <g id="shape_GFEU4wEUfK" transform="translate(54.36476269519079,169.757703781125) rotate(0,124.22508842342194,138.25569440208164) scale(1,1)" filter="" style="cursor: move; opacity: 1;"><g><svg xmlns="http://www.w3.org/2000/svg" xmlns:xlink="http://www.w3.org/1999/xlink" version="1.1" id="&#x56FE;&#x5C42;_1" x="0px" y="0px" width="248.45017684684387" height="276.5113888041633" viewBox="33.49998474121094 26.199996948242188 132.80081176757812 147.8000030517578" style="enable-background:new 0 0 200 200;" xml:space="preserve" class="style-removed" preserveAspectRatio="none" data-parent="shape_GFEU4wEUfK">

<g>
	<path d="M141.2,55.4c-0.8-0.7-2-0.5-2.7,0.3c-0.7,0.8-0.5,2,0.3,2.7c15.1,12,23.7,29.8,23.7,49.1   c0,7.6-1.4,14.9-3.9,21.7c0.5-5.7-0.7-10.9-3.8-16.1c-4.6-8-11.4-12.4-19.3-15c-3.4-1.1-6.9-1.9-10.6-2.4c0.9,0.4,1.8,0.7,2.6,1.2   c4.5,2.9,9.4,5.3,13.4,8.9c7.3,6.6,8.8,15.3,5,24.4c-3.5,8.5-9.9,14.4-17.3,19.5c-12.3,8.4-25.9,14.4-39.8,19.5   c-29.2-5.2-51.5-30.9-51.5-61.6c0-31.9,23.9-58.6,55.5-62.2c1.1-0.1,1.8-1.1,1.7-2.1c-0.1-1.1-1.1-1.8-2.1-1.7   c-33.6,3.8-58.9,32.1-58.9,66c0,36.6,29.8,66.4,66.4,66.4c36.6,0,66.4-29.8,66.4-66.4C166.4,87.1,157.2,68.1,141.2,55.4z" fill="#0B81C6" stroke-width="0"/>
	<path d="M105.1,45.1c8.5,0.7,16.7,3.1,24.2,7.1c0.3,0.2,0.6,0.2,0.9,0.2c0.7,0,1.4-0.4,1.7-1c0.5-0.9,0.1-2.1-0.8-2.6   c-8-4.2-16.7-6.8-25.7-7.5c-1.1-0.1-2,0.7-2.1,1.8C103.2,44.1,104,45,105.1,45.1z" fill="#0B81C6" stroke-width="0"/>
	<path d="M97.8,33c1.1,2.6,1.6,5.4,1.2,8.1c-0.3,2.7-1.3,5.3-2.9,7.5c-1.5,2.2-3.6,4-5.8,5.2c-0.6,0.3-1.2,0.6-1.7,0.9   l-2,0.9c-0.7,0.3-1.5,0.7-2.2,1.1c-0.7,0.4-1.4,0.8-2.1,1.3c-2.8,1.9-5.3,4.4-7,7.4c-1.8,3-2.8,6.5-3.2,9.9   c-0.2,1.7-0.2,3.5-0.1,5.2c0,0.9,0.1,1.7,0.3,2.6c0.1,0.4,0.1,0.9,0.2,1.3l0.1,0.6c-2.2,1.5-4.1,3.3-5.7,5.4   c-1.9,2.5-4,4.9-5.6,7.5c-2.4,3.8-5.6,6.4-9.7,8c-2,0.8-4,1.7-5.9,2.6c-3.1,1.5-3.5,2.6-2.6,5.8c1.1,3.8,2.8,5.3,5.8,5.1   c1.4-0.1,2.7-0.6,4.3-0.5c-1.6,0.7-3.2,1.4-4.8,2.1c1.9,3.8,3.1,4.3,6.8,2.8c4.2-1.8,8.5-2.4,13.1-2.3c5.3,0.1,10.5-0.5,15.8-0.9   c10-0.9,16.6,4.9,17,15c0.2,7.2-2.4,13.7-5.9,19.8c-0.6,1.1-1.3,2.1-2.1,3.5c0.7,0,1.1,0,1.4-0.1c11.6-4.8,22.9-10.1,33-17.7   c3-2.3,5.9-4.7,8.4-7.5c8.6-9.5,7.3-22.2-3.4-29.4c-4.3-2.9-9.4-4.7-14.1-7c-0.8-0.4-1.7-0.7-2.6-1.4c5.9-2,11.4-4.1,13.1-11.1   c-5.5-1.9-10.3-0.9-15.1,1.6c-0.1-0.3-0.1-0.5-0.2-0.6c-1.9-3.3-6.7-5.6-12.5-6.5c0.2-0.4,0.5-0.7,0.7-1.1c1.5-2,3.2-3.9,5.1-5.6   c1.9-1.7,4.1-3.1,6.5-4.3c1.2-0.6,2.4-1.2,3.6-1.6c0.6-0.3,1.3-0.5,1.9-0.7c0.6-0.2,1.4-0.4,2.1-0.7c2.9-0.9,5.7-2.2,8.3-3.9   c2.6-1.7,4.9-3.9,6.5-6.5c1.6-2.6,2.5-5.5,2.9-8.4c0.4-2.9,0.4-5.8,0.1-8.7c-0.2,2.9-0.6,5.7-1.4,8.4c-0.8,2.7-2,5.2-3.7,7.3   c-1.7,2.1-3.9,3.6-6.3,4.7c-2.4,1.1-5,1.8-7.7,2.3l-2.1,0.3c-0.8,0.1-1.5,0.3-2.2,0.4c-1.5,0.3-3,0.7-4.5,1.2c-2.9,1-5.8,2.3-8.5,4   c-2.7,1.7-5.2,3.7-7.5,6c-1.1,1.2-2.2,2.4-3.2,3.7c-0.5,0.7-1,1.3-1.4,2c-0.2,0.3-0.4,0.7-0.6,1c-2.6,0.3-5.3,0.9-7.8,1.7   c-0.1-0.4-0.2-0.9-0.3-1.3c-0.3-1.2-0.4-2.4-0.5-3.6c-0.1-2.4,0.2-4.8,1-7c0.8-2.2,2.2-4.2,4.1-6c0.5-0.4,1-0.8,1.5-1.3   c0.5-0.4,1-0.8,1.6-1.1l0.8-0.5l1-0.6c0.7-0.4,1.4-0.9,2-1.4c2.6-2,4.8-4.5,6.2-7.4c1.5-2.9,2.2-6,2.2-9.2c-0.1-3.1-1-6.2-2.6-8.8   c-1.6-2.6-3.8-4.7-6.2-6.3C94.8,28.1,96.7,30.4,97.8,33z M92,90c-3.4,4-8.3,5.4-11.6,3.5C81.3,89.2,84.8,88.5,92,90z" fill="#0B81C6" stroke-width="0"/>
</g>
</svg></g></g><g id="shape_JUjLDkeAtk" transform="translate(227.37846775118072,-120.16777269828151) rotate(0,333.28247647137414,441.87) scale(1,1)" filter="" style="cursor: move; opacity: 1;"><g><svg xmlns="http://www.w3.org/2000/svg" xmlns:xlink="http://www.w3.org/1999/xlink" version="1.1" width="919.1449529427483" height="883.74" viewBox="0 0 919.1449529427483 883.74" data-parent="shape_JUjLDkeAtk"><g data-width="413.9299952096169" transform="translate(126.31747886656571, 0)"><path d="M6.17-89.29L22.32-89.29L22.32-100.76Q22.32-103.60 25.16-103.60L25.16-103.60L38.48-103.60Q41.32-103.60 41.32-100.76L41.32-100.76L41.32-89.29L55.13-89.29Q57.97-89.29 57.97-86.45L57.97-86.45L57.97-85.10Q57.97-82.14 55.13-82.14L55.13-82.14L41.32-82.14L41.32-53.65L59.94-53.65Q62.78-53.65 62.78-50.81L62.78-50.81L62.78-49.46Q62.78-46.50 59.94-46.50L59.94-46.50L46.13-46.50L46.13-22.82L59.94-22.82Q62.78-22.82 62.78-19.98L62.78-19.98L62.78-18.50Q62.78-15.66 59.94-15.66L59.94-15.66L46.13-15.66L46.13 10.48L121.73 10.48Q124.56 10.48 124.56 13.32L124.56 13.32L124.56 14.80Q124.56 17.64 121.73 17.64L121.73 17.64L36.63 17.64Q21.95 17.64 15.17 7.03L15.17 7.03Q11.72 14.80 7.28 18.75L7.28 18.75Q5.80 20.10 4.07 19.24L4.07 19.24L2.84 18.62Q0.99 17.64 1.36 15.54L1.36 15.54Q5.43-9.62 5.67-34.16L5.67-34.16Q5.67-37.00 8.51-37.00L8.51-37.00L19.49-37.00Q20.72-37.00 21.46-36.14L21.46-36.14Q22.32-35.27 22.32-34.16L22.32-34.16Q22.08-16.03 18.50-2.84L18.50-2.84Q20.72 5.06 27.13 8.39L27.13 8.39L27.13-46.50L3.82-46.50Q0.99-46.50 0.99-49.46L0.99-49.46L0.99-50.81Q0.99-53.65 3.82-53.65L3.82-53.65L22.32-53.65L22.32-82.14L6.17-82.14Q3.33-82.14 3.33-85.10L3.33-85.10L3.33-86.45Q3.33-89.29 6.17-89.29L6.17-89.29ZM67.46-50.81L67.46-10.85Q67.46-7.28 69.31-3.70L69.31-3.70Q72.89 3.33 81.77 3.33L81.77 3.33L121.73 3.33Q124.56 3.33 124.56 0.49L124.56 0.49L124.56-0.86Q124.56-3.70 121.73-3.70L121.73-3.70L91.26-3.70Q86.58-3.70 86.58-8.51L86.58-8.51L86.58-43.66Q86.58-46.50 89.41-46.50L89.41-46.50L119.38-46.50Q122.22-46.50 122.22-49.46L122.22-49.46L122.22-95.95Q122.22-98.79 119.38-98.79L119.38-98.79L70.42-98.79Q67.46-98.79 67.46-95.95L67.46-95.95L67.46-94.59Q67.46-91.76 70.42-91.76L70.42-91.76L100.27-91.76Q103.10-91.76 103.10-88.80L103.10-88.80L103.10-56.49Q103.10-53.65 100.27-53.65L100.27-53.65L70.42-53.65Q67.46-53.65 67.46-50.81L67.46-50.81Z" transform="translate(0 487.87) skewX(0)" fill="rgb(255, 255, 255)" stroke="rgb(255, 255, 255)" stroke-width="0.21" data-glyph-w="137.9766650698723" data-glyph-h="123.330078125" data-glyph-ascender="108.53046875000001" data-glyph-descender="-14.799609375000001"/><path d="M5.30-51.80L5.30-95.95Q5.30-98.79 8.14-98.79L8.14-98.79L45.63-98.79Q48.47-98.79 48.47-95.95L48.47-95.95L48.47-51.80Q48.47-48.96 45.63-48.96L45.63-48.96L39.84-48.96L39.84-22.82L45.63-22.82Q48.47-22.82 48.47-19.98L48.47-19.98L48.47-18.50Q48.47-15.66 45.63-15.66L45.63-15.66L39.84-15.66L39.84 10.48L45.63 10.48Q48.47 10.48 48.47 13.32L48.47 13.32L48.47 14.80Q48.47 17.64 45.63 17.64L45.63 17.64L3.82 17.64Q0.99 17.64 0.99 14.80L0.99 14.80L0.99 13.32Q0.99 10.48 3.82 10.48L3.82 10.48L5.30 10.48L5.30-38.97Q5.30-41.81 8.14-41.81L8.14-41.81L15.42-41.81Q18.25-41.81 18.25-38.97L18.25-38.97L18.25 10.48L22.57 10.48L22.57-48.96L8.14-48.96Q5.30-48.96 5.30-51.80L5.30-51.80ZM54.27-71.04L54.27 3.33Q54.27 6.91 56.12 10.48L56.12 10.48Q59.69 17.64 68.57 17.64L68.57 17.64L121.73 17.64Q124.56 17.64 124.56 14.80L124.56 14.80L124.56 13.32Q124.56 10.48 121.73 10.48L121.73 10.48L78.07 10.48Q73.26 10.48 73.26 5.80L73.26 5.80L73.26-18.01L95.58-18.01Q98.42-18.01 98.42-20.84L98.42-20.84L98.42-74.61Q98.42-77.45 95.58-77.45L95.58-77.45L64.99-77.45Q69.56-81.52 72.39-86.95L72.39-86.95L100.27-86.95Q103.10-86.95 103.10-84.11L103.10-84.11L103.10-27.50Q103.10-15.91 97.43-9.74L97.43-9.74Q96.07-8.39 96.94-6.54L96.94-6.54L97.55-5.43Q98.42-3.70 100.39-3.95L100.39-3.95Q108.04-4.69 113.46-8.63L113.46-8.63Q122.22-14.92 122.22-27.50L122.22-27.50L122.22-91.26Q122.22-94.10 119.38-94.10L119.38-94.10L75.23-94.10Q76.22-97.06 76.59-100.27L76.59-100.27Q76.83-101.62 75.97-102.61L75.97-102.61Q75.11-103.60 73.87-103.60L73.87-103.60L61.42-103.60Q59.08-103.60 58.71-101.25L58.71-101.25Q56.36-87.69 50.20-76.34L50.20-76.34Q49.58-74.98 50.20-73.75L50.20-73.75L50.69-72.64Q52.79-70.54 54.27-71.04L54.27-71.04ZM76.59-25.16L73.26-25.16L73.26-67.46Q73.26-70.30 76.09-70.30L76.09-70.30L76.59-70.30Q79.42-70.30 79.42-67.46L79.42-67.46L79.42-28.00Q79.42-25.16 76.59-25.16L76.59-25.16ZM31.20-58.95L31.20-88.80Q31.20-91.76 28.37-91.76L28.37-91.76L25.41-91.76Q22.57-91.76 22.57-88.80L22.57-88.80L22.57-58.95Q22.57-55.99 25.41-55.99L25.41-55.99L28.37-55.99Q31.20-55.99 31.20-58.95L31.20-58.95Z" transform="translate(137.9766650698723 487.87) skewX(0)" fill="rgb(255, 255, 255)" stroke="rgb(255, 255, 255)" stroke-width="0.21" data-glyph-w="137.9766650698723" data-glyph-h="123.330078125" data-glyph-ascender="108.53046875000001" data-glyph-descender="-14.799609375000001"/><path d="M24.79-53.65L3.82-53.65Q0.99-53.65 0.99-56.49L0.99-56.49L0.99-60.06Q0.99-60.80 1.36-61.42L1.36-61.42L23.93-102.12Q24.67-103.60 26.39-103.60L26.39-103.60L41.32-103.60Q42.92-103.60 43.78-102.24L43.78-102.24Q44.52-100.76 43.78-99.40L43.78-99.40L24.67-64.99Q23.93-63.64 24.79-62.16L24.79-62.16Q25.53-60.80 27.13-60.80L27.13-60.80L43.29-60.80Q46.13-60.80 46.13-57.97L46.13-57.97L46.13-54.39Q46.13-53.65 45.76-53.03L45.76-53.03L24.67-15.17Q23.93-13.69 24.79-12.33L24.79-12.33Q25.53-10.85 27.13-10.85L27.13-10.85L43.29-10.85Q46.13-10.85 46.13-8.02L46.13-8.02L46.13-6.66Q46.13-3.70 43.29-3.70L43.29-3.70L3.82-3.70Q0.99-3.70 0.99-6.66L0.99-6.66L0.99-10.11Q0.99-10.85 1.36-11.59L1.36-11.59L24.79-53.65ZM122.84-37.74Q115.68-22.32 104.09-10.11L104.09-10.11Q113.22 5.06 122.96 13.81L122.96 13.81Q124.56 15.29 123.58 17.27L123.58 17.27L123.33 17.76Q122.10 20.10 119.75 19.24L119.75 19.24Q105.82 13.81 93.24-0.25L93.24-0.25Q74.61 14.18 53.16 19.49L53.16 19.49Q50.94 20.10 49.83 18.01L49.83 18.01L49.70 17.64Q48.47 15.29 50.81 13.94L50.81 13.94Q68.32 3.45 83.74-12.70L83.74-12.70Q73.63-28.24 67.34-48.96L67.34-48.96L51.31-48.96Q48.47-48.96 48.47-51.80L48.47-51.80L48.47-53.16Q48.47-55.99 51.31-55.99L51.31-55.99L65.36-55.99Q62.90-65.24 61.30-75.11L61.30-75.11L51.31-75.11Q48.47-75.11 48.47-77.94L48.47-77.94L48.47-79.30Q48.47-82.14 51.31-82.14L51.31-82.14L60.19-82.14Q58.95-91.14 58.21-100.51L58.21-100.51Q58.09-101.75 58.95-102.73L58.95-102.73Q59.82-103.60 61.05-103.60L61.05-103.60L74.37-103.60Q76.96-103.60 77.20-101.01L77.20-101.01Q78.07-91.39 79.55-82.14L79.55-82.14L121.73-82.14Q124.56-82.14 124.56-79.30L124.56-79.30L124.56-77.94Q124.56-75.11 121.73-75.11L121.73-75.11L80.78-75.11Q82.63-65.24 85.10-55.99L85.10-55.99L121.73-55.99Q124.56-55.99 124.56-53.16L124.56-53.16L124.56-51.80Q124.56-48.96 121.73-48.96L121.73-48.96L87.19-48.96Q90.77-37.12 95.58-26.52L95.58-26.52Q100.64-33.30 104.71-40.33L104.71-40.33Q105.57-41.81 107.17-41.81L107.17-41.81L120.25-41.81Q121.73-41.81 122.59-40.45L122.59-40.45Q123.45-39.22 122.84-37.74L122.84-37.74ZM96.20-88.67L92.37-97.18Q91.76-98.66 92.62-99.90L92.62-99.90Q93.48-101.25 94.96-101.25L94.96-101.25L109.27-101.25Q111.24-101.25 111.98-99.53L111.98-99.53L115.68-90.89Q116.30-89.54 115.44-88.30L115.44-88.30Q114.57-86.95 113.09-86.95L113.09-86.95L98.79-86.95Q96.94-86.95 96.20-88.67L96.20-88.67ZM3.82 10.48L43.29 10.48Q46.13 10.48 46.13 13.32L46.13 13.32L46.13 14.80Q46.13 17.64 43.29 17.64L43.29 17.64L3.82 17.64Q0.99 17.64 0.99 14.80L0.99 14.80L0.99 13.32Q0.99 10.48 3.82 10.48L3.82 10.48Z" transform="translate(275.9533301397446 487.87) skewX(0)" fill="rgb(255, 255, 255)" stroke="rgb(255, 255, 255)" stroke-width="0.21" data-glyph-w="137.9766650698723" data-glyph-h="123.330078125" data-glyph-ascender="108.53046875000001" data-glyph-descender="-14.799609375000001"/></g></svg></g></g>  <!----></svg>
