<?xml version="1.0"?>
<svg xmlns="http://www.w3.org/2000/svg" xmlns:xlink="http://www.w3.org/1999/xlink" data-noselect="" viewBox="0 0 600 250" width="1200" height="500" preserveAspectRatio="none" version="1.1"><defs/> <g id="background" data-noselect=""><rect fill="rgb(38, 59, 131)" width="600" height="250" data-noselect=""/> <!----></g> <g id="shape_GFEU4wEUfK" transform="translate(26.332738342247126,16.58053243160154) rotate(0,96.17121183557863,107.03327196272443) scale(1,1)" filter="" style="cursor: move; opacity: 1;"><g><svg xmlns="http://www.w3.org/2000/svg" xmlns:xlink="http://www.w3.org/1999/xlink" version="1.1" id="&#x56FE;&#x5C42;_1" x="0px" y="0px" width="192.34242367115726" height="214.06654392544885" viewBox="33.49998474121094 26.199996948242188 132.80081176757812 147.8000030517578" style="enable-background:new 0 0 200 200;" xml:space="preserve" class="style-removed" preserveAspectRatio="none" data-parent="shape_GFEU4wEUfK">

<g>
	<path d="M141.2,55.4c-0.8-0.7-2-0.5-2.7,0.3c-0.7,0.8-0.5,2,0.3,2.7c15.1,12,23.7,29.8,23.7,49.1   c0,7.6-1.4,14.9-3.9,21.7c0.5-5.7-0.7-10.9-3.8-16.1c-4.6-8-11.4-12.4-19.3-15c-3.4-1.1-6.9-1.9-10.6-2.4c0.9,0.4,1.8,0.7,2.6,1.2   c4.5,2.9,9.4,5.3,13.4,8.9c7.3,6.6,8.8,15.3,5,24.4c-3.5,8.5-9.9,14.4-17.3,19.5c-12.3,8.4-25.9,14.4-39.8,19.5   c-29.2-5.2-51.5-30.9-51.5-61.6c0-31.9,23.9-58.6,55.5-62.2c1.1-0.1,1.8-1.1,1.7-2.1c-0.1-1.1-1.1-1.8-2.1-1.7   c-33.6,3.8-58.9,32.1-58.9,66c0,36.6,29.8,66.4,66.4,66.4c36.6,0,66.4-29.8,66.4-66.4C166.4,87.1,157.2,68.1,141.2,55.4z" fill="#0B81C6" stroke-width="0"/>
	<path d="M105.1,45.1c8.5,0.7,16.7,3.1,24.2,7.1c0.3,0.2,0.6,0.2,0.9,0.2c0.7,0,1.4-0.4,1.7-1c0.5-0.9,0.1-2.1-0.8-2.6   c-8-4.2-16.7-6.8-25.7-7.5c-1.1-0.1-2,0.7-2.1,1.8C103.2,44.1,104,45,105.1,45.1z" fill="#0B81C6" stroke-width="0"/>
	<path d="M97.8,33c1.1,2.6,1.6,5.4,1.2,8.1c-0.3,2.7-1.3,5.3-2.9,7.5c-1.5,2.2-3.6,4-5.8,5.2c-0.6,0.3-1.2,0.6-1.7,0.9   l-2,0.9c-0.7,0.3-1.5,0.7-2.2,1.1c-0.7,0.4-1.4,0.8-2.1,1.3c-2.8,1.9-5.3,4.4-7,7.4c-1.8,3-2.8,6.5-3.2,9.9   c-0.2,1.7-0.2,3.5-0.1,5.2c0,0.9,0.1,1.7,0.3,2.6c0.1,0.4,0.1,0.9,0.2,1.3l0.1,0.6c-2.2,1.5-4.1,3.3-5.7,5.4   c-1.9,2.5-4,4.9-5.6,7.5c-2.4,3.8-5.6,6.4-9.7,8c-2,0.8-4,1.7-5.9,2.6c-3.1,1.5-3.5,2.6-2.6,5.8c1.1,3.8,2.8,5.3,5.8,5.1   c1.4-0.1,2.7-0.6,4.3-0.5c-1.6,0.7-3.2,1.4-4.8,2.1c1.9,3.8,3.1,4.3,6.8,2.8c4.2-1.8,8.5-2.4,13.1-2.3c5.3,0.1,10.5-0.5,15.8-0.9   c10-0.9,16.6,4.9,17,15c0.2,7.2-2.4,13.7-5.9,19.8c-0.6,1.1-1.3,2.1-2.1,3.5c0.7,0,1.1,0,1.4-0.1c11.6-4.8,22.9-10.1,33-17.7   c3-2.3,5.9-4.7,8.4-7.5c8.6-9.5,7.3-22.2-3.4-29.4c-4.3-2.9-9.4-4.7-14.1-7c-0.8-0.4-1.7-0.7-2.6-1.4c5.9-2,11.4-4.1,13.1-11.1   c-5.5-1.9-10.3-0.9-15.1,1.6c-0.1-0.3-0.1-0.5-0.2-0.6c-1.9-3.3-6.7-5.6-12.5-6.5c0.2-0.4,0.5-0.7,0.7-1.1c1.5-2,3.2-3.9,5.1-5.6   c1.9-1.7,4.1-3.1,6.5-4.3c1.2-0.6,2.4-1.2,3.6-1.6c0.6-0.3,1.3-0.5,1.9-0.7c0.6-0.2,1.4-0.4,2.1-0.7c2.9-0.9,5.7-2.2,8.3-3.9   c2.6-1.7,4.9-3.9,6.5-6.5c1.6-2.6,2.5-5.5,2.9-8.4c0.4-2.9,0.4-5.8,0.1-8.7c-0.2,2.9-0.6,5.7-1.4,8.4c-0.8,2.7-2,5.2-3.7,7.3   c-1.7,2.1-3.9,3.6-6.3,4.7c-2.4,1.1-5,1.8-7.7,2.3l-2.1,0.3c-0.8,0.1-1.5,0.3-2.2,0.4c-1.5,0.3-3,0.7-4.5,1.2c-2.9,1-5.8,2.3-8.5,4   c-2.7,1.7-5.2,3.7-7.5,6c-1.1,1.2-2.2,2.4-3.2,3.7c-0.5,0.7-1,1.3-1.4,2c-0.2,0.3-0.4,0.7-0.6,1c-2.6,0.3-5.3,0.9-7.8,1.7   c-0.1-0.4-0.2-0.9-0.3-1.3c-0.3-1.2-0.4-2.4-0.5-3.6c-0.1-2.4,0.2-4.8,1-7c0.8-2.2,2.2-4.2,4.1-6c0.5-0.4,1-0.8,1.5-1.3   c0.5-0.4,1-0.8,1.6-1.1l0.8-0.5l1-0.6c0.7-0.4,1.4-0.9,2-1.4c2.6-2,4.8-4.5,6.2-7.4c1.5-2.9,2.2-6,2.2-9.2c-0.1-3.1-1-6.2-2.6-8.8   c-1.6-2.6-3.8-4.7-6.2-6.3C94.8,28.1,96.7,30.4,97.8,33z M92,90c-3.4,4-8.3,5.4-11.6,3.5C81.3,89.2,84.8,88.5,92,90z" fill="#0B81C6" stroke-width="0"/>
</g>
</svg></g></g><g id="shape_JUjLDkeAtk" transform="translate(160.27438682988077,-207.89246895015185) rotate(0,258.01715744413394,341.83109375) scale(1,1)" filter="" style="cursor: move; opacity: 1;"><g><svg xmlns="http://www.w3.org/2000/svg" xmlns:xlink="http://www.w3.org/1999/xlink" version="1.1" width="711.5743148882678" height="683.6621875" viewBox="0 0 711.5743148882678 683.6621875" data-parent="shape_JUjLDkeAtk"><g data-width="320.43127089544987" transform="translate(97.801521996409, 0)"><path d="M4.77-69.13L17.28-69.13L17.28-78.01Q17.28-80.20 19.48-80.20L19.48-80.20L29.79-80.20Q31.99-80.20 31.99-78.01L31.99-78.01L31.99-69.13L42.68-69.13Q44.87-69.13 44.87-66.93L44.87-66.93L44.87-65.88Q44.87-63.59 42.68-63.59L42.68-63.59L31.99-63.59L31.99-41.53L46.40-41.53Q48.60-41.53 48.60-39.34L48.60-39.34L48.60-38.29Q48.60-36.00 46.40-36.00L46.40-36.00L35.71-36.00L35.71-17.66L46.40-17.66Q48.60-17.66 48.60-15.47L48.60-15.47L48.60-14.32Q48.60-12.13 46.40-12.13L46.40-12.13L35.71-12.13L35.71 8.12L94.24 8.12Q96.43 8.12 96.43 10.31L96.43 10.31L96.43 11.46Q96.43 13.65 94.24 13.65L94.24 13.65L28.36 13.65Q17.00 13.65 11.74 5.44L11.74 5.44Q9.07 11.46 5.63 14.51L5.63 14.51Q4.49 15.56 3.15 14.89L3.15 14.89L2.20 14.42Q0.76 13.65 1.05 12.03L1.05 12.03Q4.20-7.45 4.39-26.45L4.39-26.45Q4.39-28.64 6.59-28.64L6.59-28.64L15.09-28.64Q16.04-28.64 16.61-27.98L16.61-27.98Q17.28-27.31 17.28-26.45L17.28-26.45Q17.09-12.41 14.32-2.20L14.32-2.20Q16.04 3.91 21.01 6.49L21.01 6.49L21.01-36.00L2.96-36.00Q0.76-36.00 0.76-38.29L0.76-38.29L0.76-39.34Q0.76-41.53 2.96-41.53L2.96-41.53L17.28-41.53L17.28-63.59L4.77-63.59Q2.58-63.59 2.58-65.88L2.58-65.88L2.58-66.93Q2.58-69.13 4.77-69.13L4.77-69.13ZM52.23-39.34L52.23-8.40Q52.23-5.63 53.66-2.86L53.66-2.86Q56.43 2.58 63.30 2.58L63.30 2.58L94.24 2.58Q96.43 2.58 96.43 0.38L96.43 0.38L96.43-0.67Q96.43-2.86 94.24-2.86L94.24-2.86L70.65-2.86Q67.03-2.86 67.03-6.59L67.03-6.59L67.03-33.80Q67.03-36.00 69.22-36.00L69.22-36.00L92.42-36.00Q94.62-36.00 94.62-38.29L94.62-38.29L94.62-74.28Q94.62-76.48 92.42-76.48L92.42-76.48L54.52-76.48Q52.23-76.48 52.23-74.28L52.23-74.28L52.23-73.23Q52.23-71.04 54.52-71.04L54.52-71.04L77.62-71.04Q79.82-71.04 79.82-68.74L79.82-68.74L79.82-43.73Q79.82-41.53 77.62-41.53L77.62-41.53L54.52-41.53Q52.23-41.53 52.23-39.34L52.23-39.34Z" transform="translate(0 377.33109375) skewX(0)" fill="rgb(255, 255, 255)" stroke="rgb(255, 255, 255)" stroke-width="0.163" data-glyph-w="106.81042363181662" data-glyph-h="95.478515625" data-glyph-ascender="84.02109374999999" data-glyph-descender="-11.457421875"/><path d="M4.11-40.10L4.11-74.28Q4.11-76.48 6.30-76.48L6.30-76.48L35.33-76.48Q37.52-76.48 37.52-74.28L37.52-74.28L37.52-40.10Q37.52-37.90 35.33-37.90L35.33-37.90L30.84-37.90L30.84-17.66L35.33-17.66Q37.52-17.66 37.52-15.47L37.52-15.47L37.52-14.32Q37.52-12.13 35.33-12.13L35.33-12.13L30.84-12.13L30.84 8.12L35.33 8.12Q37.52 8.12 37.52 10.31L37.52 10.31L37.52 11.46Q37.52 13.65 35.33 13.65L35.33 13.65L2.96 13.65Q0.76 13.65 0.76 11.46L0.76 11.46L0.76 10.31Q0.76 8.12 2.96 8.12L2.96 8.12L4.11 8.12L4.11-30.17Q4.11-32.37 6.30-32.37L6.30-32.37L11.93-32.37Q14.13-32.37 14.13-30.17L14.13-30.17L14.13 8.12L17.47 8.12L17.47-37.90L6.30-37.90Q4.11-37.90 4.11-40.10L4.11-40.10ZM42.01-55.00L42.01 2.58Q42.01 5.35 43.44 8.12L43.44 8.12Q46.21 13.65 53.09 13.65L53.09 13.65L94.24 13.65Q96.43 13.65 96.43 11.46L96.43 11.46L96.43 10.31Q96.43 8.12 94.24 8.12L94.24 8.12L60.44 8.12Q56.71 8.12 56.71 4.49L56.71 4.49L56.71-13.94L74.00-13.94Q76.19-13.94 76.19-16.14L76.19-16.14L76.19-57.76Q76.19-59.96 74.00-59.96L74.00-59.96L50.32-59.96Q53.85-63.11 56.05-67.31L56.05-67.31L77.62-67.31Q79.82-67.31 79.82-65.12L79.82-65.12L79.82-21.29Q79.82-12.32 75.43-7.54L75.43-7.54Q74.38-6.49 75.05-5.06L75.05-5.06L75.52-4.20Q76.19-2.86 77.72-3.06L77.72-3.06Q83.64-3.63 87.84-6.68L87.84-6.68Q94.62-11.55 94.62-21.29L94.62-21.29L94.62-70.65Q94.62-72.85 92.42-72.85L92.42-72.85L58.24-72.85Q59.01-75.14 59.29-77.62L59.29-77.62Q59.48-78.67 58.81-79.44L58.81-79.44Q58.15-80.20 57.19-80.20L57.19-80.20L47.55-80.20Q45.73-80.20 45.45-78.39L45.45-78.39Q43.63-67.89 38.86-59.10L38.86-59.10Q38.38-58.05 38.86-57.10L38.86-57.10L39.24-56.24Q40.86-54.61 42.01-55.00L42.01-55.00ZM59.29-19.48L56.71-19.48L56.71-52.23Q56.71-54.42 58.91-54.42L58.91-54.42L59.29-54.42Q61.49-54.42 61.49-52.23L61.49-52.23L61.49-21.67Q61.49-19.48 59.29-19.48L59.29-19.48ZM24.16-45.64L24.16-68.74Q24.16-71.04 21.96-71.04L21.96-71.04L19.67-71.04Q17.47-71.04 17.47-68.74L17.47-68.74L17.47-45.64Q17.47-43.35 19.67-43.35L19.67-43.35L21.96-43.35Q24.16-43.35 24.16-45.64L24.16-45.64Z" transform="translate(106.81042363181662 377.33109375) skewX(0)" fill="rgb(255, 255, 255)" stroke="rgb(255, 255, 255)" stroke-width="0.163" data-glyph-w="106.81042363181662" data-glyph-h="95.478515625" data-glyph-ascender="84.02109374999999" data-glyph-descender="-11.457421875"/><path d="M19.19-41.53L2.96-41.53Q0.76-41.53 0.76-43.73L0.76-43.73L0.76-46.50Q0.76-47.07 1.05-47.55L1.05-47.55L18.52-79.06Q19.10-80.20 20.43-80.20L20.43-80.20L31.99-80.20Q33.23-80.20 33.89-79.15L33.89-79.15Q34.47-78.01 33.89-76.96L33.89-76.96L19.10-50.32Q18.52-49.27 19.19-48.12L19.19-48.12Q19.76-47.07 21.01-47.07L21.01-47.07L33.51-47.07Q35.71-47.07 35.71-44.87L35.71-44.87L35.71-42.11Q35.71-41.53 35.42-41.06L35.42-41.06L19.10-11.74Q18.52-10.60 19.19-9.55L19.19-9.55Q19.76-8.40 21.01-8.40L21.01-8.40L33.51-8.40Q35.71-8.40 35.71-6.21L35.71-6.21L35.71-5.16Q35.71-2.86 33.51-2.86L33.51-2.86L2.96-2.86Q0.76-2.86 0.76-5.16L0.76-5.16L0.76-7.83Q0.76-8.40 1.05-8.97L1.05-8.97L19.19-41.53ZM95.10-29.22Q89.56-17.28 80.58-7.83L80.58-7.83Q87.65 3.91 95.19 10.69L95.19 10.69Q96.43 11.84 95.67 13.37L95.67 13.37L95.48 13.75Q94.52 15.56 92.71 14.89L92.71 14.89Q81.92 10.69 72.18-0.19L72.18-0.19Q57.76 10.98 41.15 15.09L41.15 15.09Q39.43 15.56 38.57 13.94L38.57 13.94L38.48 13.65Q37.52 11.84 39.34 10.79L39.34 10.79Q52.90 2.67 64.83-9.83L64.83-9.83Q57.00-21.86 52.13-37.90L52.13-37.90L39.72-37.90Q37.52-37.90 37.52-40.10L37.52-40.10L37.52-41.15Q37.52-43.35 39.72-43.35L39.72-43.35L50.60-43.35Q48.69-50.51 47.45-58.15L47.45-58.15L39.72-58.15Q37.52-58.15 37.52-60.34L37.52-60.34L37.52-61.39Q37.52-63.59 39.72-63.59L39.72-63.59L46.59-63.59Q45.64-70.56 45.07-77.81L45.07-77.81Q44.97-78.77 45.64-79.53L45.64-79.53Q46.31-80.20 47.26-80.20L47.26-80.20L57.57-80.20Q59.58-80.20 59.77-78.20L59.77-78.20Q60.44-70.75 61.58-63.59L61.58-63.59L94.24-63.59Q96.43-63.59 96.43-61.39L96.43-61.39L96.43-60.34Q96.43-58.15 94.24-58.15L94.24-58.15L62.54-58.15Q63.97-50.51 65.88-43.35L65.88-43.35L94.24-43.35Q96.43-43.35 96.43-41.15L96.43-41.15L96.43-40.10Q96.43-37.90 94.24-37.90L94.24-37.90L67.50-37.90Q70.27-28.74 74.00-20.53L74.00-20.53Q77.91-25.78 81.06-31.22L81.06-31.22Q81.73-32.37 82.97-32.37L82.97-32.37L93.09-32.37Q94.24-32.37 94.91-31.32L94.91-31.32Q95.57-30.36 95.10-29.22L95.10-29.22ZM74.47-68.65L71.51-75.24Q71.04-76.38 71.70-77.34L71.70-77.34Q72.37-78.39 73.52-78.39L73.52-78.39L84.59-78.39Q86.12-78.39 86.69-77.05L86.69-77.05L89.56-70.37Q90.04-69.32 89.37-68.36L89.37-68.36Q88.70-67.31 87.55-67.31L87.55-67.31L76.48-67.31Q75.05-67.31 74.47-68.65L74.47-68.65ZM2.96 8.12L33.51 8.12Q35.71 8.12 35.71 10.31L35.71 10.31L35.71 11.46Q35.71 13.65 33.51 13.65L33.51 13.65L2.96 13.65Q0.76 13.65 0.76 11.46L0.76 11.46L0.76 10.31Q0.76 8.12 2.96 8.12L2.96 8.12Z" transform="translate(213.62084726363324 377.33109375) skewX(0)" fill="rgb(255, 255, 255)" stroke="rgb(255, 255, 255)" stroke-width="0.163" data-glyph-w="106.81042363181662" data-glyph-h="95.478515625" data-glyph-ascender="84.02109374999999" data-glyph-descender="-11.457421875"/></g></svg></g></g>  <!----></svg>
